<svg width="32" height="32" viewBox="0 0 32 32" fill="none" xmlns="http://www.w3.org/2000/svg">
<path d="M28.0002 6.66667C26.5202 6.2 24.8935 6 23.3335 6C20.7335 6 17.9335 6.53333 16.0002 8C14.0668 6.53333 11.2668 6 8.66683 6C6.06683 6 3.26683 6.53333 1.3335 8V27.5333C1.3335 27.8667 1.66683 28.2 2.00016 28.2C2.1335 28.2 2.20016 28.1333 2.3335 28.1333C4.1335 27.2667 6.7335 26.6667 8.66683 26.6667C11.2668 26.6667 14.0668 27.2 16.0002 28.6667C17.8002 27.5333 21.0668 26.6667 23.3335 26.6667C25.5335 26.6667 27.8002 27.0667 29.6668 28.0667C29.8002 28.1333 29.8668 28.1333 30.0002 28.1333C30.3335 28.1333 30.6668 27.8 30.6668 27.4667V8C29.8668 7.4 29.0002 7 28.0002 6.66667ZM28.0002 24.6667C26.5335 24.2 24.9335 24 23.3335 24C21.0668 24 17.8002 24.8667 16.0002 26V10.6667C17.8002 9.53333 21.0668 8.66667 23.3335 8.66667C24.9335 8.66667 26.5335 8.86667 28.0002 9.33333V24.6667Z" fill="#4183C4"/>
<path d="M23.3335 14C24.5068 14 25.6402 14.12 26.6668 14.3467V12.32C25.6135 12.12 24.4802 12 23.3335 12C21.0668 12 19.0135 12.3867 17.3335 13.1067V15.32C18.8402 14.4667 20.9335 14 23.3335 14Z" fill="#4183C4"/>
<path d="M17.3335 16.6533V18.8666C18.8402 18.0133 20.9335 17.5466 23.3335 17.5466C24.5068 17.5466 25.6402 17.6666 26.6668 17.8933V15.8666C25.6135 15.6666 24.4802 15.5466 23.3335 15.5466C21.0668 15.5466 19.0135 15.9466 17.3335 16.6533Z" fill="#4183C4"/>
<path d="M23.3335 19.1067C21.0668 19.1067 19.0135 19.4934 17.3335 20.2134V22.4267C18.8402 21.5734 20.9335 21.1067 23.3335 21.1067C24.5068 21.1067 25.6402 21.2267 26.6668 21.4534V19.4267C25.6135 19.2134 24.4802 19.1067 23.3335 19.1067Z" fill="#4183C4"/>
</svg>
